<svg viewBox="0 0 500 500" xmlns="http://www.w3.org/2000/svg">
  <g id="btc-lightning-lnurl" fill="none" fill-rule="evenodd" stroke="none" stroke-width="1">
    <path id="Shape" fill="#F7931A" fill-rule="nonzero" d="M338.029 85.355c10.7 2.249 20.982 9.737 26.75 19.557 4.557 7.823 4.757 6.747 4.765 76.887v16.876l-.001 2.534c-.02 40.393-.26 73.17-.5 73.888-1.387 3.522-.293 3.734-68.656 3.745h-102.22v22.72c0 12.485.418 25.798.836 29.627 2.005 15.894 10.282 29.044 23.742 37.7 15.883 10.235 38.623 10.235 54.506 0 17.223-11.151 24.578-26.713 24.578-52.43 0-7.658.25-9.321 1.921-12.235 5.434-9.57 18.225-11.234 26.165-3.33 4.014 4.078 5.35 8.49 5.35 18.143-.083 28.13-8.026 48.684-25.413 65.992-11.368 11.233-24.244 18.558-39.458 22.47-9.026 2.246-22.904 3.16-31.094 1.996-12.541-1.746-26.5-7.072-37.036-14.147-6.853-4.66-17.807-15.562-22.489-22.388-4.682-6.989-9.53-17.311-11.619-25.049-2.593-9.487-3.428-19.806-3.428-45.52V278.84h-14.21c-14.88 0-18.308-.665-19.561-3.745-.243-.726-.486-34.417-.5-75.63v-14.473c.01-64.088.157-67.923 1.586-72.508 4.18-13.482 16.05-24.217 30.095-27.211 3.973-.84 42.73-1.257 82.89-1.27h5.024c41.893.022 83.796.48 87.977 1.353Zm-109.41 36.385c-1.126 1.119-1.126 2.237-1.126 3.356l23.632 50.328v4.474h-47.263v4.473l57.39 62.63h3.377c-5.627-14.538-11.253-30.196-18.005-45.854v-.027c.01-.252.145-2.21 2.25-2.21h46.138s0-1.118 1.126-2.236l-67.52-74.934Z" transform="matrix(1 0 0 -1 0 494.004)"/>
  </g>
</svg>
